<svg xmlns="http://www.w3.org/2000/svg" width="170" height="44" viewBox="0 0 170 44">
    <g fill="none" fill-rule="evenodd">
        <g>
            <g>
                <g fill="#1C1649">
                    <path d="M4.688 5.88c-.686.4-1.223.963-1.614 1.69-.388.72-.583 1.536-.583 2.443s.195 1.722.583 2.434c.391.714.928 1.274 1.614 1.678.687.4 1.463.607 2.326.607s1.636-.207 2.322-.607c.69-.404 1.219-.964 1.601-1.678.384-.712.572-1.527.572-2.434 0-.907-.188-1.724-.572-2.444-.382-.726-.912-1.29-1.601-1.69-.686-.404-1.46-.606-2.322-.606-.863 0-1.64.202-2.326.606m5.92-1.982c1.056.598 1.888 1.426 2.487 2.485C13.7 7.44 14 8.65 14 10.013c0 1.347-.299 2.547-.89 3.606-.593 1.06-1.418 1.888-2.478 2.484-1.058.598-2.266.897-3.618.897-1.355 0-2.568-.3-3.632-.897-1.07-.596-1.9-1.424-2.491-2.484C.298 12.559 0 11.359 0 10.013c0-1.362.298-2.572.89-3.631.592-1.06 1.421-1.887 2.492-2.485C4.446 3.3 5.66 3 7.014 3c1.334 0 2.536.3 3.593.897M27.262 3.759c.859.508 1.531 1.247 2.014 2.217.484.969.724 2.14.724 3.505v6.232c0 .369-.112.676-.338.92-.227.248-.512.367-.853.367-.344 0-.628-.12-.854-.366-.227-.245-.342-.552-.342-.921V9.48c0-1.365-.338-2.4-1.015-3.1-.679-.701-1.578-1.05-2.702-1.05-.653 0-1.25.142-1.79.431-.538.286-.96.674-1.267 1.161-.3.493-.448 1.04-.448 1.647v7.143c0 .369-.113.676-.33.92-.22.248-.507.367-.867.367-.342 0-.626-.12-.852-.366-.23-.245-.342-.552-.342-.921V4.419c0-.389.113-.702.342-.938.226-.235.51-.354.852-.354.36 0 .648.12.868.354.216.236.329.55.329.938v.28c.493-.542 1.087-.96 1.776-1.255C22.85 3.15 23.584 3 24.365 3c1.075 0 2.042.255 2.897.759M39.505 6.18c-.703.673-1.148 1.57-1.335 2.7h7.704c-.139-1.13-.525-2.027-1.155-2.7-.634-.67-1.457-1.01-2.472-1.01-1.13 0-2.042.34-2.742 1.01m8.196 4.4c-.2.211-.455.316-.764.316h-8.789c.171 1.178.66 2.128 1.47 2.85.807.724 1.802 1.083 2.972 1.083.463 0 .946-.09 1.444-.278.502-.183.915-.411 1.24-.678.215-.189.467-.279.763-.279.29 0 .524.083.69.253.282.25.418.54.418.855 0 .303-.122.557-.37.758-.522.454-1.173.826-1.956 1.111-.775.285-1.52.429-2.23.429-1.265 0-2.397-.3-3.4-.896-1-.597-1.782-1.426-2.346-2.485-.563-1.059-.843-2.26-.843-3.606 0-1.343.268-2.55.795-3.618.536-1.07 1.275-1.9 2.225-2.498.945-.598 2.022-.897 3.227-.897 1.182 0 2.21.289 3.072.859.864.573 1.526 1.373 1.99 2.396.46 1.027.691 2.202.691 3.533 0 .314-.097.583-.3.791M68.423 3.53c.841.353 1.503.842 1.994 1.466.21.266.317.538.317.806 0 .283-.14.544-.417.781-.18.136-.407.203-.683.203-.424 0-.807-.161-1.15-.481-.408-.384-.839-.66-1.295-.821-.457-.158-1.013-.239-1.664-.239-.75 0-1.364.13-1.843.391-.482.263-.721.629-.721 1.098 0 .337.078.619.243.844.163.227.47.44.932.634.451.192 1.112.38 1.976.565 1.778.37 3.035.884 3.778 1.537.74.658 1.11 1.507 1.11 2.547 0 .776-.202 1.476-.606 2.11-.41.629-1.008 1.125-1.8 1.488-.791.36-1.741.541-2.848.541-1.108 0-2.148-.178-3.13-.531-.975-.353-1.743-.816-2.296-1.386-.212-.22-.32-.479-.32-.782 0-.406.166-.73.49-.985.31-.235.593-.352.857-.352.326 0 .633.151.926.455.31.352.775.656 1.394.918.62.264 1.28.395 1.977.395.936 0 1.652-.163 2.169-.484.513-.316.77-.745.77-1.284 0-.52-.254-.953-.756-1.299-.508-.344-1.362-.636-2.572-.871-3.128-.62-4.691-1.95-4.691-3.985 0-.82.236-1.522.71-2.092.473-.573 1.09-.998 1.853-1.287.768-.285 1.58-.43 2.448-.43 1.058 0 2.007.18 2.848.53M81.674 14.975c.216.22.326.503.326.848s-.146.628-.43.848c-.283.221-.656.329-1.104.329h-.467c-.852 0-1.626-.2-2.33-.602-.705-.401-1.255-.946-1.653-1.638-.398-.69-.6-1.47-.6-2.337V6.602h-1.195c-.366 0-.664-.095-.884-.282-.227-.189-.337-.424-.337-.708 0-.316.11-.565.337-.756.22-.187.518-.283.884-.283h1.195V1.179c0-.347.12-.629.366-.85.241-.22.555-.329.934-.329.382 0 .695.108.94.329.246.221.361.503.361.85v3.394h2.212c.364 0 .66.096.888.283.223.19.337.44.337.756 0 .284-.114.52-.337.708-.229.187-.524.282-.888.282h-2.212v5.821c0 .634.193 1.16.573 1.584.383.423.85.634 1.409.634h.883c.309 0 .575.113.792.334M89.501 6.18c-.7.673-1.144 1.57-1.33 2.7h7.704c-.139-1.13-.528-2.027-1.155-2.7-.634-.67-1.461-1.01-2.476-1.01-1.127 0-2.038.34-2.743 1.01m8.2 4.4c-.198.211-.455.316-.764.316h-8.789c.17 1.178.659 2.128 1.47 2.85.809.724 1.802 1.083 2.972 1.083.461 0 .946-.09 1.446-.278.5-.183.914-.411 1.236-.678.217-.189.47-.279.767-.279.29 0 .523.083.69.253.278.25.417.54.417.855 0 .303-.124.557-.37.758-.522.454-1.172.826-1.954 1.111-.778.285-1.522.429-2.232.429-1.264 0-2.397-.3-3.4-.896-1-.597-1.786-1.426-2.347-2.485-.562-1.059-.843-2.26-.843-3.606 0-1.343.265-2.55.795-3.618.533-1.07 1.274-1.9 2.22-2.498.947-.598 2.023-.897 3.229-.897 1.182 0 2.214.289 3.075.859.865.573 1.527 1.373 1.988 2.396.464 1.027.693 2.202.693 3.533 0 .314-.1.583-.3.791M111.287 13.662c.682-.394 1.227-.934 1.625-1.62.4-.685.596-1.459.596-2.312 0-.855-.197-1.627-.596-2.324-.398-.691-.943-1.239-1.625-1.634-.686-.393-1.456-.59-2.298-.59-.849 0-1.618.197-2.3.59-.686.395-1.223.943-1.614 1.634-.389.697-.583 1.469-.583 2.324 0 .853.194 1.627.583 2.313.391.685.928 1.225 1.614 1.62.682.396 1.451.596 2.3.596.842 0 1.612-.2 2.298-.597m1.27-9.777c1.076.591 1.919 1.395 2.529 2.421.61 1.022.914 2.164.914 3.424 0 1.26-.289 2.4-.853 3.424-.569 1.027-1.348 1.83-2.335 2.41-.996.582-2.1.872-3.317.872-.98 0-1.898-.197-2.744-.58-.845-.39-1.563-.93-2.159-1.625v6.538c0 .371-.117.668-.353.895-.24.224-.552.336-.944.336-.373 0-.678-.112-.927-.336-.247-.227-.368-.524-.368-.895V9.73c0-1.26.309-2.402.929-3.424.616-1.026 1.454-1.83 2.515-2.421 1.058-.586 2.24-.885 3.545-.885 1.3 0 2.492.299 3.569.885" transform="translate(-635 -20) translate(635 20) translate(54 11)"/>
                </g>
                <g>
                    <path fill="#FEE56B" d="M40.498 25c-.046 0-.09-.002-.136-.007-.785-.077-1.362-.802-1.288-1.62.11-1.216.09-2.46-.062-3.698-.1-.814.453-1.559 1.235-1.663.783-.104 1.497.472 1.598 1.286.178 1.455.203 2.92.073 4.355-.07.77-.692 1.347-1.42 1.347" transform="translate(-635 -20) translate(635 20)"/>
                    <path fill="#F79A76" d="M39.44 15c-.58 0-1.136-.338-1.406-.92-1.86-4.006-5.165-7.263-9.065-8.936-.798-.342-1.179-1.296-.852-2.13.328-.835 1.24-1.233 2.037-.892 4.6 1.973 8.497 5.812 10.689 10.531.376.812.053 1.789-.722 2.183-.22.111-.453.164-.681.164" transform="translate(-635 -20) translate(635 20)"/>
                    <path fill="#F16574" d="M2.013 28c-.78 0-1.476-.565-1.628-1.377C-1.502 16.596 3.696 6.24 12.745 1.999 16.037.455 19.744-.216 23.46.061c.914.067 1.602.88 1.536 1.815-.067.934-.865 1.64-1.776 1.57-3.163-.235-6.305.332-9.09 1.638C6.576 8.624 2.07 17.608 3.644 25.982c.173.92-.416 1.81-1.316 1.987-.106.02-.212.031-.316.031" transform="translate(-635 -20) translate(635 20)"/>
                    <path fill="#6D72B4" d="M14.5 22c-.828 0-1.5-.577-1.5-1.288v-3.424c0-.712.672-1.288 1.5-1.288.829 0 1.5.576 1.5 1.288v3.424c0 .711-.671 1.288-1.5 1.288" transform="translate(-635 -20) translate(635 20)"/>
                    <path fill="#4C4E94" d="M21.5 22c-.828 0-1.5-.567-1.5-1.266v-6.467c0-.7.672-1.267 1.5-1.267.829 0 1.5.567 1.5 1.267v6.467c0 .699-.671 1.266-1.5 1.266" transform="translate(-635 -20) translate(635 20)"/>
                    <path fill="#1C1649" d="M27.5 22c-.828 0-1.5-.618-1.5-1.38V10.38c0-.763.672-1.38 1.5-1.38.829 0 1.5.617 1.5 1.38v10.24c0 .762-.671 1.38-1.5 1.38M41 31.098c0-1.9-1.599-3.446-3.565-3.446-.617 0-1.215.16-1.746.449l-.017.009c-.04.022-.084.04-.123.063l.003.004c-.022.013-.045.022-.066.037l-6.333 4.432c-.308-.674-.819-1.258-1.486-1.66-.018-.013-.036-.026-.056-.037-.014-.008-.026-.02-.04-.027-.024-.013-.048-.02-.072-.032-.022-.01-.04-.024-.064-.033C26.193 30.358 15.246 26 12.08 26h-.034c-2.529.025-10.008 4.182-11.482 5.015-.543.307-.726.982-.408 1.507.212.35.594.545.985.545.196 0 .395-.049.575-.15 3.448-1.95 8.939-4.7 10.354-4.714h.021c2.019 0 9.833 2.832 14.373 4.65.533.322.824.927.723 1.53-.065.402-.288.754-.627.993-.323.227-.714.322-1.11.276L15.3 32.295c-.594-.196-1.243.11-1.447.686-.205.575.113 1.202.709 1.399l10.276 3.4c.063.02.126.035.19.044h.001c.04.007.078.005.117.01.02 0 .041.005.061.005.145.015.29.032.433.032.81 0 1.596-.245 2.262-.714.68-.478 1.165-1.144 1.408-1.903.003-.003.008-.004.012-.007l7.45-5.212c.197-.117.426-.18.663-.18.709 0 1.285.558 1.285 1.243 0 .22-.056.424-.165.61h.002c-.005.01-.014.019-.02.03-2.411 4.382-8.38 9.642-17.268 10.042-2.388.11-8.573-.166-14.391-5.046-.476-.397-1.196-.349-1.609.11-.413.46-.362 1.156.113 1.554C11.22 43.293 17.422 44 20.517 44c.32 0 .608-.008.86-.02 9.844-.443 16.482-6.315 19.174-11.209l.01-.024c.286-.502.439-1.07.439-1.65" transform="translate(-635 -20) translate(635 20)"/>
                </g>
            </g>
        </g>
    </g>
</svg>
